<svg xmlns="http://www.w3.org/2000/svg" viewBox="0 0 208 27" width="208"><path fill="#f1477e" d="M0 6.3h4.3v5.9h2.2l2-3.7c.5-.8.9-1.3 1.5-1.7.5-.3 1.2-.5 2-.5h1.8v3.4h-1.6l-1.3 2.4c-.3.5-.5.9-.8 1.1s-.6.4-.9.5v.1c.3.1.6.2.9.4a2.36 2.36 0 0 1 .8.9l1.7 3.1h1.6v3.4h-2c-.8 0-1.5-.2-2-.5s-1-.9-1.4-1.7l-2.2-3.9H4.3v6.1H0V6.3zm20.3 3.4h-4.4V6.3h13.2v3.4h-4.4v11.9h-4.3V9.7zM37.8 22c-1.1 0-2.1-.2-3-.6s-1.6-.9-2.3-1.6c-.6-.7-1.1-1.5-1.4-2.5s-.5-2.1-.5-3.3.2-2.3.5-3.3.8-1.8 1.4-2.5 1.4-1.2 2.3-1.6 1.9-.6 3-.6 2.1.2 3 .6 1.6.9 2.3 1.6c.6.7 1.1 1.5 1.4 2.5s.5 2.1.5 3.3-.2 2.3-.5 3.3-.8 1.8-1.4 2.5-1.4 1.2-2.3 1.6-1.9.6-3 .6zm0-3.4c.9 0 1.5-.3 2-.8s.7-1.3.7-2.2v-3.1c0-1-.2-1.7-.7-2.2s-1.1-.8-2-.8-1.5.3-2 .8-.7 1.3-.7 2.2v3.1c0 1 .2 1.7.7 2.2s1.1.8 2 .8z"/><path fill="#181818" d="M48 6.4h4.3v2.5h.1c.2-.8.7-1.5 1.4-2 .8-.5 1.6-.8 2.6-.8 1.9 0 3.4.7 4.4 2s1.5 3.3 1.5 5.8-.5 4.5-1.5 5.8-2.4 2-4.4 2c-.5 0-1-.1-1.4-.2s-.8-.3-1.2-.6l-.9-.9c-.3-.4-.4-.7-.5-1.1h-.1V27H48V6.4zm7.1 11.9c.8 0 1.5-.3 2-.8.5-.6.8-1.3.8-2.3v-2.6c0-.9-.3-1.7-.8-2.2-.5-.6-1.2-.9-2-.9s-1.5.2-2 .6-.8.9-.8 1.6v4.4c0 .7.3 1.2.8 1.6s1.2.6 2 .6zm21.7 3c-.8 0-1.4-.2-1.9-.7s-.8-1.1-1-1.9h-.2c-.2 1-.7 1.7-1.5 2.2s-1.8.7-2.9.7c-1.5 0-2.7-.4-3.5-1.2s-1.2-1.8-1.2-3.1c0-1.6.6-2.7 1.7-3.5 1.2-.8 2.8-1.2 4.8-1.2h2.4v-.9c0-.7-.2-1.3-.6-1.7s-1-.7-1.9-.7c-.8 0-1.5.2-2 .5-.5.4-.9.8-1.2 1.2l-2.5-2.2a6.59 6.59 0 0 1 2.3-2.1c.9-.5 2.2-.8 3.8-.8 2.2 0 3.8.5 4.9 1.4s1.6 2.3 1.6 4.1v6.5h1.4v3.3h-2.5zm-5.9-2.6c.7 0 1.3-.2 1.8-.5s.8-.8.8-1.5v-1.8h-2.1c-1.7 0-2.5.6-2.5 1.7v.4c0 .5.2 1 .5 1.2.3.4.8.5 1.5.5zm16.4 3c-1.5 0-2.8-.2-3.8-.7s-2-1.1-2.8-2l2.5-2.5c1.1 1.2 2.5 1.9 4.1 1.9.9 0 1.5-.1 1.9-.4s.6-.7.6-1.2v-.3c0-.9-.6-1.3-1.7-1.3h-3.4v-2.8h3c1.1 0 1.7-.4 1.7-1.3v-.3a1.1 1.1 0 0 0-.6-1c-.4-.3-1-.4-1.7-.4a4.65 4.65 0 0 0-2.1.5c-.6.3-1.1.7-1.5 1.3L81 8.9c.8-.9 1.7-1.6 2.7-2.1 1.1-.5 2.3-.7 3.8-.7 2.1 0 3.7.4 4.7 1.2 1.1.8 1.6 1.7 1.6 2.9 0 1-.3 1.7-.8 2.2s-1.3.9-2.4 1v.1c1.1.1 2 .5 2.6 1 .7.6 1 1.3 1 2.3 0 1.5-.6 2.7-1.8 3.5-1.2 1-2.9 1.4-5.1 1.4zM97.4 6.4h4.3v2.5h.1c.2-.8.7-1.5 1.4-2 .8-.5 1.6-.8 2.6-.8 1.9 0 3.4.7 4.4 2s1.5 3.3 1.5 5.8-.5 4.5-1.5 5.8-2.4 2-4.4 2c-.5 0-1-.1-1.4-.2s-.8-.3-1.2-.6l-.9-.9c-.2-.4-.4-.7-.5-1.1h-.1V27h-4.3V6.4zm7 11.9c.8 0 1.5-.3 2-.8.5-.6.8-1.3.8-2.3v-2.6c0-.9-.3-1.7-.8-2.2-.5-.6-1.2-.9-2-.9s-1.5.2-2 .6-.8.9-.8 1.6v4.4c0 .7.3 1.2.8 1.6.6.4 1.2.6 2 .6zm21.7 3c-.8 0-1.4-.2-1.9-.7s-.8-1.1-1-1.9h-.2c-.2 1-.7 1.7-1.5 2.2s-1.8.7-2.9.7c-1.5 0-2.7-.4-3.5-1.2s-1.2-1.8-1.2-3.1c0-1.6.6-2.7 1.7-3.5 1.2-.8 2.8-1.2 4.8-1.2h2.4v-.9c0-.7-.2-1.3-.6-1.7s-1-.7-1.9-.7c-.8 0-1.5.2-2 .5-.5.4-.9.8-1.2 1.2l-2.5-2.2a6.59 6.59 0 0 1 2.3-2.1c.9-.5 2.2-.8 3.8-.8 2.2 0 3.8.5 4.9 1.4s1.6 2.3 1.6 4.1v6.5h1.4v3.3h-2.5zm-5.9-2.6c.7 0 1.3-.2 1.8-.5s.8-.8.8-1.5v-1.8h-2.1c-1.7 0-2.5.6-2.5 1.7v.4c0 .5.2 1 .5 1.2.4.4.9.5 1.5.5zm17.3 3c-1.1 0-2.1-.2-3-.5-.9-.4-1.6-1-2.3-1.7-.6-.8-1.1-1.8-1.4-3s-.5-2.6-.5-4.3c0-1.9.2-3.5.5-4.9s.8-2.6 1.5-3.5S134 2 135 1.5s2.3-.9 3.7-1l4.9-.5v4l-4.9.5c-.7.1-1.3.2-1.8.4s-.8.5-1.1.9-.5.9-.6 1.6a14.36 14.36 0 0 0-.2 2.4h.1c.3-1 .8-1.7 1.4-2.2s1.5-.7 2.5-.7c.8 0 1.5.2 2.2.5s1.3.8 1.8 1.4.9 1.3 1.2 2.2.4 1.8.4 2.9c0 1.2-.2 2.3-.5 3.3s-.8 1.8-1.4 2.5-1.3 1.2-2.2 1.5-1.8.5-3 .5zm0-3.4c.8 0 1.5-.3 2-.8s.7-1.2.7-2.2V13c0-.9-.2-1.7-.7-2.2s-1.1-.8-2-.8-1.5.3-2 .8-.7 1.2-.7 2.2v2.3c0 .9.2 1.7.7 2.2s1.2.8 2 .8zm16.3 3.4c-1.1 0-2.1-.2-3-.5-.9-.4-1.6-.9-2.2-1.6s-1.1-1.5-1.4-2.5-.5-2-.5-3.2.2-2.3.5-3.2c.3-1 .8-1.8 1.4-2.4.6-.7 1.4-1.2 2.2-1.6.9-.4 1.9-.5 3-.5s2.1.2 3 .5c.9.4 1.6.9 2.2 1.6s1.1 1.5 1.4 2.4.5 2 .5 3.2-.2 2.3-.5 3.2a7.68 7.68 0 0 1-1.4 2.5c-.6.7-1.3 1.2-2.2 1.6-.9.3-1.9.5-3 .5zm0-3.4c.8 0 1.5-.3 2-.8s.7-1.2.7-2.2v-3c0-.9-.2-1.7-.7-2.2s-1.1-.8-2-.8c-.8 0-1.5.3-2 .8s-.7 1.2-.7 2.2v3c0 .9.2 1.7.7 2.2.5.6 1.2.8 2 .8zm13-8.6h-4.4V6.4h13.1v3.3h-4.4v11.6h-4.3V9.7zm22.3 11.6c-.8 0-1.4-.2-1.9-.7s-.8-1.1-1-1.9h-.2c-.2 1-.7 1.7-1.5 2.2s-1.8.7-2.9.7c-1.5 0-2.7-.4-3.5-1.2s-1.2-1.8-1.2-3.1c0-1.6.6-2.7 1.7-3.5 1.2-.8 2.8-1.2 4.8-1.2h2.4v-.9c0-.7-.2-1.3-.6-1.7s-1-.7-1.9-.7c-.8 0-1.5.2-2 .5-.5.4-.9.8-1.2 1.2l-2.5-2.2a6.59 6.59 0 0 1 2.3-2.1c.9-.5 2.2-.8 3.8-.8 2.2 0 3.8.5 4.9 1.4s1.6 2.3 1.6 4.1v6.5h1.4v3.3h-2.5zm-5.9-2.6c.7 0 1.3-.2 1.8-.5s.8-.8.8-1.5v-1.8h-2.1c-1.7 0-2.5.6-2.5 1.7v.4c0 .5.2 1 .5 1.2.4.4.8.5 1.5.5zm9.6-.6h2c.2-.2.4-.6.5-.9.2-.4.3-.8.4-1.4l.3-2c.1-.8.1-1.6.1-2.7V6.4h12v14.9h-4.3V9.7h-3.7v1.7l-.1 3.4c-.1 1-.2 1.8-.4 2.5s-.4 1.3-.7 1.8c-.2.5-.5.9-.8 1.2-.5.5-1 .8-1.6 1s-1.3.3-2.3.3h-1.3v-3.5z"/></svg>