<svg xmlns="http://www.w3.org/2000/svg" viewBox="0 0 181 16.9" width="181"><path fill="#828290" d="M4.1 13.5c-.6 0-1.2-.1-1.7-.3s-1-.5-1.3-1a5.3 5.3 0 0 1-.8-1.5c-.2-.6-.3-1.3-.3-2s.1-1.4.3-2a5.3 5.3 0 0 1 .8-1.5 6.42 6.42 0 0 1 1.3-1c.5-.2 1.1-.3 1.7-.3.9 0 1.7.2 2.2.6.6.4 1 .9 1.3 1.6l-1.2.5a4.44 4.44 0 0 0-.8-1.1c-.3-.3-.9-.4-1.5-.4-.4 0-.8.1-1.1.2-.3.2-.6.4-.8.6-.2.3-.4.5-.5.9-.1.3-.2.7-.2 1.1v1.6c0 .8.2 1.5.6 2s1.1.8 1.9.8c1.2 0 2-.5 2.5-1.6l1 .7c-.3.7-.7 1.2-1.3 1.6-.5.3-1.2.5-2.1.5zm12.3-.2c-.5 0-.9-.1-1.2-.4-.2-.3-.4-.6-.4-1.1h-.1c-.2.6-.5 1-1 1.3s-1 .4-1.7.4c-1 0-1.7-.3-2.3-.8-.5-.5-.8-1.2-.8-2 0-.9.3-1.5 1-2 .6-.5 1.6-.7 3-.7h1.8v-.9c0-.7-.2-1.2-.5-1.5-.4-.3-.9-.5-1.6-.5-.6 0-1 .1-1.4.4s-.7.6-.9 1l-1-.8c.3-.5.7-.9 1.2-1.3s1.2-.5 2.1-.5c1.1 0 2 .3 2.6.8.7.5 1 1.3 1 2.3v5.1h1.1v1.3h-.9zm-4.1-1c.4 0 .7 0 1-.1s.6-.2.8-.4.4-.3.5-.5.2-.4.2-.7V9.1h-1.9c-.8 0-1.4.1-1.8.4a1.1 1.1 0 0 0-.6 1v.4c0 .5.2.8.5 1.1.3.2.7.3 1.3.3zm7-8.2h1.4v5.1l-.1 2.2h.1l1.1-2L25.5 4h1.3v9.3h-1.4V8.2l.1-2.2h-.1l-1.1 2-3.7 5.4h-1.3V4.1zm3.8-1.5c-.6 0-1.2-.1-1.5-.4-.4-.3-.7-.6-.9-1l-.4-.7 1.2-.5.6 1.5c.1 0 .3.1.5.1h.5.5c.2 0 .3-.1.5-.1l.5-1.5 1.3.6-.4.7c-.2.4-.5.8-.9 1s-.9.3-1.5.3zm8.7 2.7h-3.2V4.1h7.7v1.3h-3.2v8h-1.4V5.3zm10.7-1.2h1.4v5.1l-.1 2.2h.1l1.1-2L48.7 4H50v9.3h-1.4V8.2l.2-2.2h-.1l-1.1 2-3.7 5.4h-1.3V4.1zm9.2 8h1.2c.2-.2.3-.5.4-.8s.2-.7.3-1.1.1-.9.2-1.5c0-.6.1-1.2.1-2V4.1h6.3v9.3h-1.4v-8h-3.5v1.4l-.1 2.3c-.1.7-.1 1.2-.3 1.7-.1.5-.2.9-.4 1.2s-.3.5-.5.7-.5.4-.8.5-.6.1-1 .1h-.6v-1.2zm11.5-8h1.4v5.1l-.1 2.2h.1l1.1-2L69.4 4h1.3v9.3h-1.4V8.2l.1-2.2h-.1l-1.1 2-3.7 5.4h-1.3V4.1zm14.8 0h7.2v9.3h-1.4v-8h-4.4v8H78V4.1zm10.2 0h1.4v1.5h.1c.2-.6.6-1 1-1.3.5-.3 1-.4 1.7-.4.6 0 1.2.1 1.6.3.5.2.9.5 1.2 1a5.3 5.3 0 0 1 .8 1.5c.2.6.3 1.3.3 2s-.1 1.4-.3 2-.4 1.1-.8 1.5c-.3.4-.7.7-1.2 1s-1 .3-1.6.3c-1.3 0-2.2-.6-2.7-1.7h-.1v5.1h-1.4V4.1zm3.9 8.1c.8 0 1.5-.3 1.9-.8.5-.5.7-1.2.7-2V7.9c0-.8-.2-1.5-.7-2s-1.1-.8-1.9-.8c-.3 0-.6 0-.9.1s-.5.2-.8.4-.4.4-.5.6-.2.4-.2.7v3.4c0 .3.1.6.2.8s.3.4.5.6.5.3.8.4c.2.1.5.1.9.1zm6.6-8.1h1.4v5.1l-.1 2.2h.1l1.1-2 3.7-5.4h1.3v9.3h-1.4V8.2l.1-2.2h-.1l-1.1 2-3.7 5.4h-1.3V4.1zm9.1 8h1.2c.2-.2.3-.5.4-.8s.2-.7.3-1.1.1-.9.2-1.5c0-.6.1-1.2.1-2V4.1h6.3v9.3h-1.4v-8h-3.5v1.4l-.1 2.3c-.1.7-.1 1.2-.3 1.7-.1.5-.2.9-.4 1.2s-.3.5-.5.7-.5.4-.8.5-.6.1-1 .1h-.6v-1.2zm15 1.4c-.6 0-1.2-.1-1.7-.3s-1-.5-1.3-1c-.4-.4-.6-.9-.8-1.5s-.3-1.3-.3-2 .1-1.4.3-2a5.3 5.3 0 0 1 .8-1.5c.4-.4.8-.8 1.3-1s1.1-.3 1.7-.3 1.2.1 1.7.3a3.25 3.25 0 0 1 1.3 1c.4.4.7.9.9 1.5s.3 1.3.3 2-.1 1.4-.3 2-.5 1.1-.9 1.5a6.42 6.42 0 0 1-1.3 1c-.5.2-1.1.3-1.7.3zm0-1.2c.8 0 1.4-.2 1.9-.7s.7-1.2.7-2.2V8c0-1-.2-1.7-.7-2.2s-1.1-.7-1.9-.7-1.4.2-1.9.7-.7 1.2-.7 2.2v1.3c0 1 .2 1.7.7 2.2s1.1.8 1.9.8zm5.5-.2h1.1l1-2.5c.1-.3.3-.5.5-.7s.4-.3.6-.3v-.1c-.2-.1-.4-.2-.6-.4s-.3-.4-.5-.7l-1-2.1h-1.1V4.1h.8c.4 0 .7.1.9.3.3.2.5.5.7.9l1.2 2.7h1.6V4.1h1.4V8h1.6l1.2-2.7c.2-.4.4-.7.7-.9a1.69 1.69 0 0 1 1-.3h.8v1.3h-1.1l-1 2.1c-.1.3-.3.5-.5.7s-.4.3-.6.4v.1c.2 0 .5.1.6.3.2.2.4.4.5.7l1 2.5h1.1v1.3h-1c-.3 0-.6-.1-.9-.3s-.5-.5-.7-1l-1.2-2.9h-1.6v4.2h-1.4V9.2h-1.6l-1.2 2.9c-.2.5-.4.8-.7 1s-.6.3-.9.3h-1v-1.3zm17.8 1.4c-.6 0-1.2-.1-1.7-.3s-.9-.5-1.3-1c-.4-.4-.6-.9-.8-1.5s-.3-1.3-.3-2 .1-1.4.3-2a5.3 5.3 0 0 1 .8-1.5c.4-.4.8-.8 1.3-1s1.1-.3 1.7-.3 1.2.1 1.7.3.9.5 1.3 1c.3.4.6.9.8 1.4s.3 1.2.3 1.8v.7h-6.7v.4c0 .4.1.8.2 1.1s.3.6.5.9.5.4.9.6a3.73 3.73 0 0 0 1.2.2c.6 0 1.1-.1 1.5-.4s.8-.7 1-1.2l1 .7c-.3.6-.8 1.1-1.4 1.5a4.38 4.38 0 0 1-2.3.6zm0-8.4c-.4 0-.8.1-1.1.2s-.6.3-.8.6-.4.5-.5.9c-.1.3-.2.7-.2 1.1V8h5.1v-.2c0-.8-.2-1.5-.7-2s-1.1-.7-1.8-.7zm6.3-1h1.4V8h4.6V4.1h1.4v9.3h-1.4V9.2h-4.6v4.1h-1.4V4.1zm10.6 0h1.4v5.1l-.1 2.2h.1l1.1-2 3.7-5.4h1.3v9.3h-1.4V8.2l.1-2.2h-.1L168 8l-3.7 5.4H163V4.1zm14 9.4c-.6 0-1.2-.1-1.7-.3s-.9-.5-1.3-1c-.4-.4-.6-.9-.8-1.5s-.3-1.3-.3-2 .1-1.4.3-2a5.3 5.3 0 0 1 .8-1.5c.4-.4.8-.8 1.3-1s1.1-.3 1.7-.3 1.2.1 1.7.3.9.5 1.3 1c.3.4.6.9.8 1.4s.3 1.2.3 1.8v.7h-6.7v.4c0 .4.1.8.2 1.1s.3.6.5.9.5.4.9.6a3.73 3.73 0 0 0 1.2.2c.6 0 1.1-.1 1.5-.4s.8-.7 1-1.2l1 .7c-.3.6-.8 1.1-1.4 1.5a4.38 4.38 0 0 1-2.3.6zm0-8.4c-.4 0-.8.1-1.1.2s-.6.3-.8.6-.4.5-.5.9c-.1.3-.2.7-.2 1.1V8h5.1v-.2c0-.8-.2-1.5-.7-2s-1.1-.7-1.8-.7z"/></svg>