<?xml version="1.0" encoding="utf-8"?><svg xmlns="http://www.w3.org/2000/svg" xmlns:xlink="http://www.w3.org/1999/xlink"><symbol viewBox="0 0 11 11.1" id="arrow" xmlns="http://www.w3.org/2000/svg"><path d="m9 1.3-6.1-.1L3 0l7.5.2h.6v.6l-.2 7.5H9.7l.1-6-8.9 8.9-.9-.9 9-9z"/></symbol><symbol viewBox="0 0 14 14" id="cross" xmlns="http://www.w3.org/2000/svg"><path d="M13.1 14c-.2 0-.5-.1-.7-.3L7 8.3l-5.4 5.4c-.4.4-1 .4-1.3 0-.4-.4-.4-1 0-1.3L5.7 7 .3 1.6C-.1 1.2-.1.6.3.3s1-.4 1.3 0L7 5.7 12.4.3c.4-.4 1-.4 1.3 0 .4.4.4 1 0 1.3L8.3 7l5.4 5.4c.4.4.4 1 0 1.3-.2.2-.4.3-.6.3z"/></symbol><symbol viewBox="0 0 22 22" id="loupe" xmlns="http://www.w3.org/2000/svg"><path d="m21.7 20.3-4-4c1.4-1.7 2.3-3.9 2.3-6.3 0-5.5-4.5-10-10-10S0 4.5 0 10s4.5 10 10 10c2.4 0 4.6-.8 6.3-2.3l4 4c.2.2.5.3.7.3s.5-.1.7-.3c.4-.4.4-1 0-1.4zM10 18c-4.4 0-8-3.6-8-8s3.6-8 8-8 8 3.6 8 8-3.6 8-8 8z"/></symbol><symbol viewBox="0 0 22 22" fill="#F1477E" id="loupe--pink" xmlns="http://www.w3.org/2000/svg"><path d="m21.7 20.3-4-4c1.4-1.7 2.3-3.9 2.3-6.3 0-5.5-4.5-10-10-10S0 4.5 0 10s4.5 10 10 10c2.4 0 4.6-.8 6.3-2.3l4 4c.2.2.5.3.7.3s.5-.1.7-.3c.4-.4.4-1 0-1.4zM10 18c-4.4 0-8-3.6-8-8s3.6-8 8-8 8 3.6 8 8-3.6 8-8 8z"/></symbol><symbol viewBox="0 0 10 7.5" id="mark" xmlns="http://www.w3.org/2000/svg"><path d="M3.6 7.5.2 4.1c-.3-.3-.3-.8 0-1.1s.8-.3 1.1 0l2.3 2.3L8.7.2c.3-.3.8-.3 1.1 0s.3.8 0 1.1L3.6 7.5z"/></symbol><symbol viewBox="0 0 10 7.5" fill="#fff" id="mark--white" xmlns="http://www.w3.org/2000/svg"><path d="M3.6 7.5.2 4.1c-.3-.3-.3-.8 0-1.1s.8-.3 1.1 0l2.3 2.3L8.7.2c.3-.3.8-.3 1.1 0s.3.8 0 1.1L3.6 7.5z"/></symbol></svg>